<svg version="1.1" xmlns="http://www.w3.org/2000/svg" xmlns:xlink="http://www.w3.org/1999/xlink" x="0px" y="0px" viewBox="0 0 512 512" style="enable-background:new 0 0 512 512;" xml:space="preserve"> <g> <path d="M23.5,244.3c-31.3,31.3-31.3,82.1,0,113.4l130.8,130.8c0,0,0,0,0,0c31.3,31.3,82.1,31.3,113.4,0l237.1-237.1 c4.8-4.8,7.4-11.3,7.2-18l-4.1-174.8c-0.5-29.9-24.6-54-54.5-54.5L278.6,0c-6.7-0.2-13.2,2.5-18,7.2L23.5,244.3z M58.6,279.2 L287.8,49.4l164.6,3.8c3.4,0,6.2,2.8,6.2,6.2l3.8,164.6L232.8,453.4c-12,12-31.6,12-43.6,0L58.6,322.8 C46.5,310.8,46.5,291.2,58.6,279.2z"/> <path d="M293.7,113.6c-28.9,29-28.8,75.8,0.2,104.7c28.9,28.8,75.6,28.8,104.5,0c29-28.9,29-75.7,0.2-104.7 c-28.9-29-75.7-29-104.7-0.2C293.8,113.4,293.7,113.5,293.7,113.6z M328.8,183.2c-9.6-9.6-9.6-25.3,0-34.9c9.6-9.6,25.2-9.6,34.9,0 c9.6,9.6,9.7,25.3,0,34.9C354,192.8,338.4,192.8,328.8,183.2C328.8,183.2,328.8,183.2,328.8,183.2z"/> </g> </svg>