<svg version="1.1" xmlns="http://www.w3.org/2000/svg" xmlns:xlink="http://www.w3.org/1999/xlink" x="0px" y="0px" viewBox="0 0 492 492" style="enable-background:new 0 0 492 492;" xml:space="preserve"> <g> <g> <path d="M265.2,390.7l218.9-218.9c5.1-5.1,7.9-11.8,7.9-19s-2.8-14-7.9-19L468,117.5c-10.5-10.5-27.6-10.5-38.1,0L246.1,301.4 L62,117.3c-5.1-5.1-11.8-7.9-19-7.9c-7.2,0-14,2.8-19,7.9L7.9,133.5c-5.1,5.1-7.9,11.8-7.9,19s2.8,14,7.9,19L227,390.7 c5.1,5.1,11.9,7.9,19.1,7.8C253.3,398.5,260.1,395.8,265.2,390.7z"/> </g> </g> </svg>