<?xml version="1.0" encoding="utf-8"?>
<!-- Generator: Adobe Illustrator 23.0.0, SVG Export Plug-In . SVG Version: 6.00 Build 0)  -->
<svg version="1.1" id="Layer_1" xmlns="http://www.w3.org/2000/svg" xmlns:xlink="http://www.w3.org/1999/xlink" x="0px" y="0px"
	 viewBox="0 0 512 512" style="enable-background:new 0 0 512 512;" xml:space="preserve">
<path d="M448,106.7H250l-6.8-21.3c-9.1-25.7-33.4-42.8-60.6-42.7H64c-35.3,0-64,28.7-64,64v298.7c0,35.3,28.7,64,64,64h384
	c35.3,0,64-28.7,64-64V170.7C512,135.3,483.3,106.7,448,106.7z M469.3,405.3c0,11.8-9.6,21.3-21.3,21.3H64
	c-11.8,0-21.3-9.6-21.3-21.3V106.7c0-11.8,9.6-21.3,21.3-21.3h118.6c9.2,0,17.3,5.8,20.3,14.5l16.4,49.5H448
	c11.8,0,21.3,9.6,21.3,21.3V405.3z"/>
</svg>
