<svg version="1.1" id="Layer_1" xmlns="http://www.w3.org/2000/svg" xmlns:xlink="http://www.w3.org/1999/xlink" x="0px" y="0px" viewBox="0 0 492 492" style="enable-background:new 0 0 492 492;" xml:space="preserve"> <g> <g> <path d="M101.5,245.9c0,7.2,2.8,14,7.8,19.1l219.2,219.1c5.1,5.1,11.8,7.9,19,7.9s14-2.8,19-7.9l16.1-16.1 c5.1-5.1,7.9-11.8,7.9-19c0-7.2-2.8-14-7.9-19L198.6,245.9L382.5,62c10.5-10.5,10.5-27.6,0-38.1L366.3,7.9 c-5.1-5.1-11.8-7.9-19-7.9c-7.2,0-14,2.8-19,7.9L109.3,226.8C104.3,231.9,101.5,238.7,101.5,245.9z"/> </g> </g> </svg>