<?xml version="1.0" encoding="utf-8"?>
<!-- Generator: Adobe Illustrator 23.0.0, SVG Export Plug-In . SVG Version: 6.00 Build 0)  -->
<svg version="1.1" id="Layer_1" xmlns="http://www.w3.org/2000/svg" xmlns:xlink="http://www.w3.org/1999/xlink" x="0px" y="0px"
	 viewBox="0 0 492 492" style="enable-background:new 0 0 492 492;" xml:space="preserve">
<style type="text/css">
	.st0{fill:#FFFFFF;}
</style>
<g>
	<path d="M28.9,416.1c0-113.4,0-226.8,0-340.1c0.3-1.1,0.7-2.1,0.9-3.2c6.2-41.4,41.2-72.4,83-72.5c88.9-0.3,177.8-0.3,266.6,0
		c46.5,0.2,83.7,38.1,83.7,84.5c0.1,107.5,0.1,214.9,0,322.4c0,38-24.5,70.4-61,81.1c-5.5,1.6-11.2,2.5-16.8,3.8
		c-92.9,0-185.8,0-278.6,0c-1.2-0.3-2.4-0.8-3.7-0.9c-34.3-4.2-62.9-29.4-71.5-62.9C30.5,424.2,29.7,420.1,28.9,416.1z M85.9,245.5
		c0,53.5,0,107,0,160.5c0,14.6,7.8,24.9,21.4,28c3.5,0.8,7.3,0.9,11,0.9c47.6,0.1,95.1,0,142.7,0c38,0,75.9-0.3,113.9,0.1
		c17.2,0.2,32.1-10,31.6-31.4c-0.7-26.9-0.2-53.8-0.2-80.7c0-78.8,0-157.6,0-236.4c0-14.9-7.4-25-20.9-28.3c-3.1-0.8-6.3-1-9.5-1
		c-86.3-0.1-172.6,0.1-258.9-0.1c-17,0-31.4,10.1-31.1,31.4C86.2,140.8,85.9,193.2,85.9,245.5z"/>
	<path class="st0" d="M28.9,416.1c0.9,4,1.6,8.1,2.7,12.1c8.6,33.5,37.2,58.6,71.5,62.9c1.2,0.2,2.5,0.6,3.7,0.9
		c-25.9,0-51.7,0-77.8,0C28.9,466.7,28.9,441.4,28.9,416.1z"/>
	<path d="M246,148.8c-33.1,0-66.3,0-99.4,0c-10.8,0-14.8-4-14.8-14.7c0-5.8,0-11.5,0-17.3c0-9.5,4.3-13.7,13.8-13.7
		c60.7,0,121.4,0,182.1,0c6.6,0,13.1-0.1,19.7,0c8.3,0.1,12.8,4.5,12.9,12.7c0.1,6.6,0,13.1,0,19.7c-0.1,8.8-4.5,13.3-13.4,13.3
		C313.3,148.8,279.7,148.8,246,148.8z"/>
	<path d="M246,343.3c33.3,0,66.6,0,99.9,0c10.2,0,14.3,4.1,14.3,14.2c0,5.9,0,11.8,0,17.8c0,9.4-4.3,13.7-13.9,13.7
		c-63.1,0-126.2,0-189.3,0c-4.2,0-8.3,0-12.5,0c-8.3-0.1-12.8-4.6-12.9-12.8c-0.1-6.6,0-13.1,0-19.7c0-8.8,4.4-13.2,13.4-13.2
		C178.8,343.3,212.4,343.3,246,343.3z"/>
	<path d="M246,183.2c33.1,0,66.3,0,99.4,0c11.2,0,14.8,3.7,14.8,15c0,6.1,0.1,12.2,0,18.3c-0.1,7.7-4.7,12.2-12.4,12.2
		c-67.9,0-135.8,0-203.7,0c-7.9,0-12.3-4.6-12.4-12.6c-0.1-5.9,0-11.8,0-17.8c0-11.6,3.6-15.1,15.3-15.1
		C180,183.2,213,183.2,246,183.2z"/>
	<path d="M246.5,263.3c33.3,0,66.6,0,99.9,0c9.9,0,13.9,4.1,13.9,14c0,5.8,0,11.5,0,17.3c0,10.3-3.9,14.1-14.3,14.1
		c-20.8,0-41.6,0-62.4,0c-45.6,0-91.3,0-136.9,0c-11.3,0-14.8-3.6-14.8-15c0-5.9,0-11.8,0-17.8c0.1-8.3,4.5-12.7,12.8-12.7
		C178.6,263.3,212.5,263.3,246.5,263.3z"/>
</g>
</svg>
