<?xml version="1.0" encoding="utf-8"?>
<!-- Generator: Adobe Illustrator 23.0.0, SVG Export Plug-In . SVG Version: 6.00 Build 0)  -->
<svg version="1.1" id="Capa_1" xmlns="http://www.w3.org/2000/svg" xmlns:xlink="http://www.w3.org/1999/xlink" x="0px" y="0px"
	 viewBox="0 0 512 512" style="enable-background:new 0 0 512 512;" xml:space="preserve">
<g>
	<g>
		<path d="M5.9,270.2C5.9,270.2,5.9,270.2,5.9,270.2l104.5,104c7.8,7.8,20.5,7.8,28.3-0.1c7.8-7.8,7.8-20.5-0.1-28.3L68.4,276H492
			c11,0,20-9,20-20c0-11-9-20-20-20H68.4l70.2-69.8c7.8-7.8,7.9-20.5,0.1-28.3c-7.8-7.8-20.5-7.9-28.3-0.1L5.9,241.8c0,0,0,0,0,0
			C-1.9,249.6-2,262.3,5.9,270.2z"/>
	</g>
</g>
</svg>
