<svg version="1.1" id="Bold" xmlns="http://www.w3.org/2000/svg" xmlns:xlink="http://www.w3.org/1999/xlink" x="0px" y="0px" viewBox="0 0 512 512" style="enable-background:new 0 0 512 512;" xml:space="preserve"> <g> <g> <path d="M467,62H45C20.2,62,0,82.2,0,107v300c0,24.7,20.1,45,45,45h422c24.7,0,45-20.1,45-45V107C512,82.3,491.9,62,467,62z M460.8,92L257,295.8L51.4,92H460.8z M30,400.8V113.1l144.5,143.2L30,400.8z M51.2,422l144.6-144.6l50.7,50.2 c5.9,5.8,15.3,5.8,21.2,0l49.4-49.4L460.8,422H51.2z M482,400.8L338.2,257L482,113.2V400.8z"/> </g> </g> </svg>