<svg version="1.1" id="Layer_1" xmlns="http://www.w3.org/2000/svg" xmlns:xlink="http://www.w3.org/1999/xlink" x="0px" y="0px" viewBox="0 0 492 492" style="enable-background:new 0 0 492 492;" xml:space="preserve"> <g> <g> <path d="M246.1,109.5c-7.2,0-14,2.8-19.1,7.8L7.9,336.5c-5.1,5.1-7.9,11.8-7.9,19s2.8,14,7.9,19L24,390.7c5.1,5.1,11.8,7.9,19,7.9 c7.2,0,14-2.8,19-7.9l184.1-184.1L430,390.5c10.5,10.5,27.6,10.5,38.1,0l16.1-16.1c5.1-5.1,7.9-11.8,7.9-19s-2.8-14-7.9-19 L265.2,117.3C260.1,112.2,253.3,109.5,246.1,109.5z"/> </g> </g> </svg>