<?xml version="1.0" encoding="utf-8"?>
<!-- Generator: Adobe Illustrator 23.0.0, SVG Export Plug-In . SVG Version: 6.00 Build 0)  -->
<svg version="1.1" id="Layer_1" xmlns="http://www.w3.org/2000/svg" xmlns:xlink="http://www.w3.org/1999/xlink" x="0px" y="0px"
	 viewBox="0 0 1920 589" style="enable-background:new 0 0 1920 589;" xml:space="preserve">
<style type="text/css">
	.st0{display:none;fill:url(#SVGID_1_);}
	.st1{opacity:0.28;}
	.st2{fill:#FFFFFF;}
	.st3{opacity:0.25;}
	.st4{opacity:0.1;fill:#FFFFFF;}
	.st5{fill:#FFFCFB;}
	.st6{fill:url(#SVGID_2_);}
	.st7{fill:#6B3077;}
	.st8{fill:url(#SVGID_3_);}
	.st9{fill:#B3B3B3;}
	.st10{fill:url(#SVGID_4_);}
	.st11{fill:#E6E6E6;}
	.st12{opacity:0.2;fill:#FFFFFF;}
	.st13{opacity:0.12;fill:#FFFFFF;}
	.st14{fill:#2D0A84;}
	.st15{fill:#009AA5;}
	.st16{fill:url(#SVGID_5_);}
	.st17{opacity:0.7;}
	.st18{opacity:0.3;fill:#FFFFFF;}
	.st19{opacity:0.1;}
</style>
<linearGradient id="SVGID_1_" gradientUnits="userSpaceOnUse" x1="2042.427" y1="48.3606" x2="115.278" y2="486.4883">
	<stop  offset="0" style="stop-color:#14C2FF"/>
	<stop  offset="0.447" style="stop-color:#4C9BFF"/>
	<stop  offset="0.8107" style="stop-color:#737FFF"/>
	<stop  offset="1" style="stop-color:#8275FF"/>
</linearGradient>
<rect x="-1.1" y="0.2" class="st0" width="1920" height="589"/>
<g class="st1">
	<path class="st2" d="M1736.4,186c0,1.1-0.9,2.1-2.1,2.1c-1.1,0-2.1-0.9-2.1-2.1c0-1.1,0.9-2.1,2.1-2.1
		C1735.5,183.9,1736.4,184.8,1736.4,186z"/>
	<path class="st2" d="M1723.4,185.4c-2.9,0-5.3-2.4-5.3-5.2c0-2.9,2.4-5.2,5.3-5.2c2.9,0,5.2,2.4,5.2,5.2
		C1728.7,183.1,1726.3,185.4,1723.4,185.4z M1723.4,177.7c-1.4,0-2.5,1.1-2.5,2.5c0,1.4,1.1,2.5,2.5,2.5c1.4,0,2.5-1.1,2.5-2.5
		C1725.9,178.8,1724.8,177.7,1723.4,177.7z"/>
	<path class="st2" d="M1874.6,82.6h-1.8v1.8c0,0.8-0.6,1.4-1.4,1.4c-0.8,0-1.4-0.6-1.4-1.4v-1.8h-1.8c-0.8,0-1.4-0.6-1.4-1.4
		c0-0.8,0.6-1.4,1.4-1.4h1.8v-1.8c0-0.8,0.6-1.4,1.4-1.4c0.8,0,1.4,0.6,1.4,1.4v1.8h1.8c0.8,0,1.4,0.6,1.4,1.4
		C1876.1,81.9,1875.4,82.6,1874.6,82.6z"/>
	<path class="st2" d="M1888.8,73.4c0,1.1-0.9,2.1-2.1,2.1c-1.1,0-2.1-0.9-2.1-2.1c0-1.1,0.9-2.1,2.1-2.1
		C1887.9,71.3,1888.8,72.2,1888.8,73.4z"/>
</g>
<g class="st3">
	<path class="st2" d="M63.9,362.9c0,1.4-1.2,2.6-2.6,2.6c-1.5,0-2.6-1.2-2.6-2.6c0-1.5,1.2-2.6,2.6-2.6
		C62.7,360.3,63.9,361.4,63.9,362.9z"/>
	<path class="st2" d="M47.5,362.2c-3.7,0-6.6-3-6.6-6.6c0-3.7,3-6.6,6.6-6.6c3.7,0,6.6,3,6.6,6.6C54.1,359.2,51.1,362.2,47.5,362.2z
		 M47.5,352.4c-1.8,0-3.2,1.4-3.2,3.2s1.4,3.2,3.2,3.2c1.8,0,3.2-1.4,3.2-3.2S49.2,352.4,47.5,352.4z"/>
	<path class="st2" d="M238.8,232h-2.2v2.2c0,1-0.8,1.8-1.8,1.8c-1,0-1.8-0.8-1.8-1.8V232h-2.2c-1,0-1.8-0.8-1.8-1.8
		c0-1,0.8-1.8,1.8-1.8h2.2v-2.2c0-1,0.8-1.8,1.8-1.8c1,0,1.8,0.8,1.8,1.8v2.2h2.2c1,0,1.8,0.8,1.8,1.8
		C240.6,231.2,239.8,232,238.8,232z"/>
	<path class="st2" d="M256.8,220.4c0,1.5-1.2,2.6-2.6,2.6c-1.5,0-2.6-1.2-2.6-2.6c0-1.5,1.2-2.6,2.6-2.6
		C255.6,217.7,256.8,218.9,256.8,220.4z"/>
</g>
<g class="st3">
	<path class="st2" d="M929.1,409.3c0,0-0.2-0.3-0.4-1c-0.1-0.4-0.2-0.8-0.3-1.4c-0.1-0.6,0-1.3,0.2-2c0.2-0.7,0.7-1.5,1.4-2.1
		c0.7-0.6,1.6-1,2.6-1.2c1-0.1,2,0,3.1,0.3c0.5,0.2,1,0.4,1.5,0.7c0.2,0.2,0.5,0.3,0.7,0.5c0.2,0.2,0.4,0.4,0.6,0.6
		c1.6,1.7,2.3,4.1,2.6,6.4c0.3,2.3,0.3,4.8,0,7.3c-0.3,2.5-1.1,5.1-2.3,7.5c-1.2,2.4-3,4.7-5.2,6.4c-2.2,1.7-4.7,3-7.5,3.5
		c-1.4,0.3-2.7,0.4-4.1,0.2c-1.4-0.1-2.7-0.4-4-0.9c-2.5-1-4.6-2.6-6.1-4.5c-0.7-1-1.4-2-1.8-3.1c-0.2-0.6-0.4-1.1-0.5-1.6l-0.1-0.3
		c0-0.1-0.1-0.2-0.1-0.4c0-0.2-0.1-0.5-0.1-0.7c-0.1-0.5-0.1-1-0.2-1.4l0-0.2c0,0,0.1,0,0.2,0l0.4,0c0.2,0,0.5,0,0.7-0.1
		c0.5-0.1,0.9,0,1.3,0c0.2,0,0.4,0,0.6,0c0.2,0,0.3,0,0.4,0c0.3,0,0.5,0.1,0.8,0.1c1,0.2,1.9,0.6,2.7,1c1.6,0.9,2.7,2,3.5,3
		c0.8,1,1.2,1.9,1.5,2.6c0.2,0.7,0.3,1,0.3,1c0,0.1,0.2,0.8,0.3,1.9c0.1,1.1,0,2.6-0.6,4.3c-0.6,1.7-1.6,3.4-3.1,4.9
		c-0.8,0.7-1.6,1.4-2.6,2c-1,0.6-2,0.9-3.1,1.2c-2.2,0.5-4.4,0.5-6.4,0.1c-2-0.4-3.7-1.1-5.1-1.7c-2.8-1.3-4.5-2.4-4.5-2.6h0
		c0.1-0.2,2,0.6,4.8,1.6c1.4,0.5,3.1,1,5,1.3c1.8,0.3,3.8,0.2,5.6-0.4c0.9-0.3,1.8-0.7,2.6-1.2c0.8-0.5,1.5-1.1,2.1-1.7
		c1.2-1.3,2-2.8,2.4-4.2c0.4-1.4,0.4-2.6,0.4-3.4c-0.1-0.8-0.3-1.3-0.3-1.4c0,0-0.1-0.3-0.3-0.8c-0.2-0.5-0.5-1.2-1.1-2
		c-0.6-0.8-1.5-1.6-2.7-2.3c-0.6-0.3-1.3-0.6-2-0.7c-0.2-0.1-0.4-0.1-0.6-0.1l-0.3,0l0,0l-0.1,0l0,0.1c0.1,0.4,0.3,0.9,0.4,1.3
		c0.4,0.9,0.8,1.7,1.5,2.5c1.2,1.6,3,2.9,5,3.7c2,0.8,4.4,1,6.6,0.5c2.3-0.4,4.5-1.5,6.4-3c1.9-1.5,3.4-3.4,4.5-5.5
		c1.1-2.1,1.7-4.4,2-6.7c0.3-2.3,0.3-4.6,0-6.6c-0.3-2.1-0.9-3.9-2-5.1c-0.1-0.2-0.3-0.3-0.4-0.4c-0.1-0.1-0.3-0.2-0.4-0.3
		c-0.3-0.2-0.6-0.3-0.9-0.5c-0.7-0.2-1.3-0.3-1.9-0.2c-1.2,0.2-1.8,0.9-2,1.6c-0.2,0.7-0.1,1.4,0.1,1.8c0.2,0.4,0.3,0.7,0.3,0.7
		c0.1,0.1,0.2,0.6,0.8,1.2c0.3,0.3,0.6,0.7,1.1,1.1c0.2,0.2,0.5,0.4,0.7,0.5c0.3,0.2,0.6,0.3,0.9,0.5c1.4,0.6,3.1,1.1,4.9,1
		c1.8,0,3.8-0.6,5.6-1.5c1.7-1,3.3-2.3,4.3-3.9c1.1-1.5,1.7-3.2,2-4.7c0.3-1.5,0.2-2.8,0.1-3.7c-0.1-0.9-0.2-1.4-0.1-1.5
		c0.1,0,0.3,0.4,0.6,1.4c0.3,0.9,0.5,2.3,0.4,3.9c-0.1,1.6-0.7,3.6-1.8,5.4c-1.1,1.8-2.7,3.5-4.6,4.7c-1.9,1.2-4.2,1.9-6.4,2.1
		c-2.2,0.2-4.3-0.3-5.9-1c-0.4-0.2-0.8-0.4-1.2-0.6c-0.4-0.2-0.7-0.4-1-0.7c-0.6-0.5-1.1-1-1.5-1.4
		C929.5,410.1,929.1,409.4,929.1,409.3z"/>
</g>
<g class="st3">
	<path class="st2" d="M438.2,69.7c0,0-0.2-0.3-0.4-1c-0.1-0.4-0.2-0.8-0.3-1.4c-0.1-0.6,0-1.3,0.2-2c0.2-0.7,0.7-1.5,1.4-2.1
		c0.7-0.6,1.6-1,2.6-1.2c1-0.1,2,0,3.1,0.3c0.5,0.2,1,0.4,1.5,0.7c0.2,0.2,0.5,0.3,0.7,0.5c0.2,0.2,0.4,0.4,0.6,0.6
		c1.6,1.7,2.3,4.1,2.6,6.4c0.3,2.3,0.3,4.8,0,7.3c-0.3,2.5-1.1,5.1-2.3,7.5c-1.2,2.4-3,4.7-5.2,6.4c-2.2,1.7-4.7,3-7.5,3.5
		c-1.4,0.3-2.7,0.4-4.1,0.2c-1.4-0.1-2.7-0.4-4-0.9c-2.5-1-4.6-2.6-6.1-4.5c-0.7-1-1.4-2-1.8-3.1c-0.2-0.6-0.4-1.1-0.5-1.6l-0.1-0.3
		c0-0.1-0.1-0.2-0.1-0.4c0-0.2-0.1-0.5-0.1-0.7c-0.1-0.5-0.1-1-0.2-1.4l0-0.2c0,0,0.1,0,0.2,0l0.4,0c0.2,0,0.5,0,0.7-0.1
		c0.5-0.1,0.9,0,1.3,0c0.2,0,0.4,0,0.6,0c0.2,0,0.3,0,0.4,0c0.3,0,0.5,0.1,0.8,0.1c1,0.2,1.9,0.6,2.7,1c1.6,0.9,2.7,2,3.5,3
		c0.8,1,1.2,1.9,1.5,2.6c0.2,0.7,0.3,1,0.3,1c0,0.1,0.2,0.8,0.3,1.9c0.1,1.1,0,2.6-0.6,4.3c-0.6,1.7-1.6,3.4-3.1,4.9
		c-0.8,0.7-1.6,1.4-2.6,2c-1,0.6-2,0.9-3.1,1.2c-2.2,0.5-4.4,0.5-6.4,0.1c-2-0.4-3.7-1.1-5.1-1.7c-2.8-1.3-4.5-2.4-4.5-2.6h0
		c0.1-0.2,2,0.6,4.8,1.6c1.4,0.5,3.1,1,5,1.3c1.8,0.3,3.8,0.2,5.6-0.4c0.9-0.3,1.8-0.7,2.6-1.2c0.8-0.5,1.5-1.1,2.1-1.7
		c1.2-1.3,2-2.8,2.4-4.2c0.4-1.4,0.4-2.6,0.4-3.4c-0.1-0.8-0.3-1.3-0.3-1.4c0,0-0.1-0.3-0.3-0.8c-0.2-0.5-0.5-1.2-1.1-2
		c-0.6-0.8-1.5-1.6-2.7-2.3c-0.6-0.3-1.3-0.6-2-0.7c-0.2-0.1-0.4-0.1-0.6-0.1l-0.3,0l0,0l-0.1,0l0,0.1c0.1,0.4,0.3,0.9,0.4,1.3
		c0.4,0.9,0.8,1.7,1.5,2.5c1.2,1.6,3,2.9,5,3.7c2,0.8,4.4,1,6.6,0.5c2.3-0.4,4.5-1.5,6.4-3c1.9-1.5,3.4-3.4,4.5-5.5
		c1.1-2.1,1.7-4.4,2-6.7c0.3-2.3,0.3-4.6,0-6.6c-0.3-2.1-0.9-3.9-2-5.1c-0.1-0.2-0.3-0.3-0.4-0.4c-0.1-0.1-0.3-0.2-0.4-0.3
		c-0.3-0.2-0.6-0.3-0.9-0.5c-0.7-0.2-1.3-0.3-1.9-0.2c-1.2,0.2-1.8,0.9-2,1.6c-0.2,0.7-0.1,1.4,0.1,1.8c0.2,0.4,0.3,0.7,0.3,0.7
		c0.1,0.1,0.2,0.6,0.8,1.2c0.3,0.3,0.6,0.7,1.1,1.1c0.2,0.2,0.5,0.4,0.7,0.5c0.3,0.2,0.6,0.3,0.9,0.5c1.4,0.6,3.1,1.1,4.9,1
		c1.8,0,3.8-0.6,5.6-1.5c1.7-1,3.3-2.3,4.3-3.9c1.1-1.5,1.7-3.2,2-4.7c0.3-1.5,0.2-2.8,0.1-3.7c-0.1-0.9-0.2-1.4-0.1-1.5
		c0.1,0,0.3,0.4,0.6,1.4c0.3,0.9,0.5,2.3,0.4,3.9c-0.1,1.6-0.7,3.6-1.8,5.4c-1.1,1.8-2.7,3.5-4.6,4.7c-1.9,1.2-4.2,1.9-6.4,2.1
		c-2.2,0.2-4.3-0.3-5.9-1c-0.4-0.2-0.8-0.4-1.2-0.6c-0.4-0.2-0.7-0.4-1-0.7c-0.6-0.5-1.1-1-1.5-1.4
		C438.6,70.5,438.3,69.8,438.2,69.7z"/>
</g>
<g class="st3">
	<path class="st2" d="M1852.5,319.7c0,0-0.2-0.3-0.4-1c-0.1-0.4-0.2-0.8-0.3-1.4c-0.1-0.6,0-1.3,0.2-2c0.2-0.7,0.7-1.5,1.4-2.1
		c0.7-0.6,1.6-1,2.6-1.2c1-0.1,2,0,3.1,0.3c0.5,0.2,1,0.4,1.5,0.7c0.2,0.2,0.5,0.3,0.7,0.5c0.2,0.2,0.4,0.4,0.6,0.6
		c1.6,1.7,2.3,4.1,2.6,6.4c0.3,2.3,0.3,4.8,0,7.3c-0.3,2.5-1.1,5.1-2.3,7.5c-1.2,2.4-3,4.7-5.2,6.4c-2.2,1.7-4.7,3-7.5,3.5
		c-1.4,0.3-2.7,0.4-4.1,0.2c-1.4-0.1-2.7-0.4-4-0.9c-2.5-1-4.6-2.6-6.1-4.5c-0.7-1-1.4-2-1.8-3.1c-0.2-0.6-0.4-1.1-0.5-1.6l-0.1-0.3
		c0-0.1-0.1-0.2-0.1-0.4c0-0.2-0.1-0.5-0.1-0.7c-0.1-0.5-0.1-1-0.2-1.4l0-0.2c0,0,0.1,0,0.2,0l0.4,0c0.2,0,0.5,0,0.7-0.1
		c0.5-0.1,0.9,0,1.3,0c0.2,0,0.4,0,0.6,0c0.2,0,0.3,0,0.4,0c0.3,0,0.5,0.1,0.8,0.1c1,0.2,1.9,0.6,2.7,1c1.6,0.9,2.7,2,3.5,3
		c0.8,1,1.2,1.9,1.5,2.6c0.2,0.7,0.3,1,0.3,1c0,0.1,0.2,0.8,0.3,1.9c0.1,1.1,0,2.6-0.6,4.3c-0.6,1.7-1.6,3.4-3.1,4.9
		c-0.8,0.7-1.6,1.4-2.6,2c-1,0.6-2,0.9-3.1,1.2c-2.2,0.5-4.4,0.5-6.4,0.1c-2-0.4-3.7-1.1-5.1-1.7c-2.8-1.3-4.5-2.4-4.5-2.6l0,0
		c0.1-0.2,2,0.6,4.8,1.6c1.4,0.5,3.1,1,5,1.3c1.8,0.3,3.8,0.2,5.6-0.4c0.9-0.3,1.8-0.7,2.6-1.2c0.8-0.5,1.5-1.1,2.1-1.7
		c1.2-1.3,2-2.8,2.4-4.2c0.4-1.4,0.4-2.6,0.4-3.4c-0.1-0.8-0.3-1.3-0.3-1.4c0,0-0.1-0.3-0.3-0.8c-0.2-0.5-0.5-1.2-1.1-2
		c-0.6-0.8-1.5-1.6-2.7-2.3c-0.6-0.3-1.3-0.6-2-0.7c-0.2-0.1-0.4-0.1-0.6-0.1l-0.3,0l0,0l-0.1,0l0,0.1c0.1,0.4,0.3,0.9,0.4,1.3
		c0.4,0.9,0.8,1.7,1.5,2.5c1.2,1.6,3,2.9,5,3.7c2,0.8,4.4,1,6.6,0.5c2.3-0.4,4.5-1.5,6.4-3c1.9-1.5,3.4-3.4,4.5-5.5
		c1.1-2.1,1.7-4.4,2-6.7c0.3-2.3,0.3-4.6,0-6.6c-0.3-2.1-0.9-3.9-2-5.1c-0.1-0.2-0.3-0.3-0.4-0.4c-0.1-0.1-0.3-0.2-0.4-0.3
		c-0.3-0.2-0.6-0.3-0.9-0.5c-0.7-0.2-1.3-0.3-1.9-0.2c-1.2,0.2-1.8,0.9-2,1.6c-0.2,0.7-0.1,1.4,0.1,1.8c0.2,0.4,0.3,0.7,0.3,0.7
		c0.1,0.1,0.2,0.6,0.8,1.2c0.3,0.3,0.6,0.7,1.1,1.1c0.2,0.2,0.5,0.4,0.7,0.5c0.3,0.2,0.6,0.3,0.9,0.5c1.4,0.6,3.1,1.1,4.9,1
		c1.8,0,3.8-0.6,5.6-1.5c1.7-1,3.3-2.3,4.3-3.9c1.1-1.5,1.7-3.2,2-4.7c0.3-1.5,0.2-2.8,0.1-3.7c-0.1-0.9-0.2-1.4-0.1-1.5
		c0.1,0,0.3,0.4,0.6,1.4c0.3,0.9,0.5,2.3,0.4,3.9c-0.1,1.6-0.7,3.6-1.8,5.4c-1.1,1.8-2.7,3.5-4.6,4.7c-1.9,1.2-4.2,1.9-6.4,2.1
		c-2.2,0.2-4.3-0.3-5.9-1c-0.4-0.2-0.8-0.4-1.2-0.6c-0.4-0.2-0.7-0.4-1-0.7c-0.6-0.5-1.1-1-1.5-1.4
		C1852.9,320.5,1852.5,319.8,1852.5,319.7z"/>
</g>
<path class="st4" d="M-0.1,588.6V369.2c0,0,136-58.6,408.7,74.7c0,0,212.9,103.4,370,101.9c157-1.5,262.7-27.6,481-180.8
	c89.6-62.8,196.1-122.3,320.2-118c199.1,6.9,287.2,154.7,340.1,154.3l0.1,187.2H-0.1z"/>
<path class="st4" d="M1919.9,588.6V473.4c-352.3-81.9-306.4,251.3-1079.7,6.1c-89.6-43.6-196.1-84.8-320.2-81.8
	C320.9,402.4,52.8,524.9-0.1,524.7l-0.1,63.9H1919.9z"/>
<g>
	<g>
		<path class="st5" d="M1704.4,279.3c-4.2-2.9-7.5-6.3-9.9-10.7c-7.2-13-8.9-28.9-5.6-43.3c0.5-2.4,1.1-4.7,1.5-7.1
			c0-0.2,0-0.4-0.1-0.5c-0.1-0.1-0.2-0.1-0.3-0.1c-2.6-0.1-4.6,6.3-5.3,8.1c-5.3,14.9-1.9,32.3,5,46c1.4,2.8,3.1,5.6,4.9,8.2
			c0.9,1.3,1.9,2.6,3,3.9c0.3,0.3,3.2,3.3,3.1,3.5C1701.9,284.6,1703.2,281.9,1704.4,279.3z"/>
	</g>
	<g>
		<path class="st5" d="M1732.6,277.8c13.6-8,27.1-15.9,40.7-23.9c6.8-4,13.6-7.9,20.9-10.8c2.5-1,4.8-0.9,2.7,2
			c-1.3,1.8-12.9,8.9-16.7,11.3c-14,9-28.1,18-42.1,27c-0.7,0.4-1.5,0.9-2.3,0.7c-0.6-0.1-1.1-0.7-1.5-1.2c-1.2-1.6-1.9-3.5-2-5.5
			L1732.6,277.8z"/>
	</g>
	<g>
		<g>
			<linearGradient id="SVGID_2_" gradientUnits="userSpaceOnUse" x1="1683.2229" y1="421.3555" x2="1720.2603" y2="352.8363">
				<stop  offset="0" style="stop-color:#33A6FD"/>
				<stop  offset="0.1162" style="stop-color:#3EA1FD"/>
				<stop  offset="0.4742" style="stop-color:#5C93FD"/>
				<stop  offset="0.7814" style="stop-color:#6E8AFD"/>
				<stop  offset="1" style="stop-color:#7587FD"/>
			</linearGradient>
			<path class="st6" d="M1703.5,339.5c-0.9,6-1.1,13.6,0.4,19.4c1.3,5.1,3,10.1,4.9,15c0.9,2.4,1.9,4.9,2.8,7.3
				c0.4,1.1,1.1,2.4,1,3.7c-0.1,1.4-1.1,2.4-1.8,3.5c-1,1.8-2.1,3.6-3.1,5.4c-1.9,3.5-3.8,7-5.5,10.6c-3.6,7.4-7.3,16.2-9.9,24.2
				l5.9,0.9c7.6-10.6,14.6-21,21.7-32.2c2.2-3.5,5.1-8.4,5.3-13c0.1-1.4-0.3-17.4-0.8-29.2c-0.3-7.3-0.7-13-1.2-13L1703.5,339.5z"/>
		</g>
		<g>
			<path class="st7" d="M1691.4,431.1c-0.1,0.7,0.1,1.5,0.6,1.8c0.3,0.2,0.8,0.2,1.2,0.2c4.6,0.1,9.3-0.1,13.9-0.4
				c0.5,0,0.9-0.1,1.3-0.3c0.4-0.2,0.7-0.8,0.6-1.3c-0.1-0.7-0.8-1-1.4-1.1c-2.4-0.6-11.9-3.4-14.6-3.5
				C1693,426.5,1691.5,430.4,1691.4,431.1z"/>
		</g>
	</g>
	<g>
		<g>
			<linearGradient id="SVGID_3_" gradientUnits="userSpaceOnUse" x1="1707.3994" y1="429.5276" x2="1731.1652" y2="352.0577">
				<stop  offset="0" style="stop-color:#33A6FD"/>
				<stop  offset="0.1162" style="stop-color:#3EA1FD"/>
				<stop  offset="0.4742" style="stop-color:#5C93FD"/>
				<stop  offset="0.7814" style="stop-color:#6E8AFD"/>
				<stop  offset="1" style="stop-color:#7587FD"/>
			</linearGradient>
			<path class="st8" d="M1713.5,340.4c0.2,6.1,1.3,13.5,3.7,19c2.2,4.7,4.7,9.2,7.3,13.6c1.3,2.2,2.7,4.4,4,6.6
				c0.6,1,1.5,2.1,1.6,3.4c0.2,1.4-0.7,2.6-1.1,3.8c-0.7,2-1.4,4-2.1,6c-1.3,3.8-2.5,7.7-3.6,11.6c-2.3,8.1-4.1,15.8-5.3,24.1
				l6.1,0.4c5.6-12.1,10.4-23,15.5-35.5c1.6-3.9,3.6-9.3,3-13.9c-0.3-2.3-7.9-41.3-9.2-41L1713.5,340.4z"/>
		</g>
		<g>
			<path class="st7" d="M1717,431c-0.1,0.7,0.1,1.5,0.6,1.8c0.3,0.2,0.8,0.2,1.2,0.2c4.6,0,9.3-0.1,13.9-0.4c0.5,0,0.9-0.1,1.3-0.3
				c0.4-0.2,0.7-0.8,0.6-1.3c-0.1-0.7-0.8-1-1.4-1.1c-2.4-0.6-12.3-3.3-15-3.4C1718.2,426.5,1717.1,430.4,1717,431z"/>
		</g>
	</g>
	<polygon class="st9" points="1729.2,380.6 1724.7,358.1 1725.1,374 	"/>
	<g>
		<linearGradient id="SVGID_4_" gradientUnits="userSpaceOnUse" x1="1678.7847" y1="291.6996" x2="1767.8981" y2="291.6996">
			<stop  offset="0" style="stop-color:#FDB080"/>
			<stop  offset="0.9972" style="stop-color:#FD6B70"/>
		</linearGradient>
		<path class="st10" d="M1712.7,282c-16.1-9-21.1-25.9-22.8-41.4l-11.1,3.2c1.6,20.4,11.1,37.8,27.3,50.3c0,0-5.3,31.7-4.4,48.7
			l35.2-0.8c-3.6-15.3-6-48.2-6-48.2c13.8-9.8,22.7-16.5,37.1-25.1c0,0-2.6-8.7-4.2-12c-14.3,8.3-28,17.9-42.8,25.5L1712.7,282z"/>
	</g>
	<g>
		<g>
			<path class="st5" d="M1720.9,271.7l4.7-1.6c0.3-1.5,0.3-3.2,0-4.9c-1-5.3-4.9-8.9-8.7-8.2c-3.8,0.7-6,5.6-5,10.8
				c1,5.3,4.9,8.9,8.7,8.2c1.5-0.3,2.8-1.3,3.7-2.7C1722.3,273.5,1720.9,271.7,1720.9,271.7z"/>
		</g>
		<g>
			<path class="st5" d="M1711.8,266.3c0.6,1.1,0.5,2.4-0.2,2.8c-0.8,0.4-1.9-0.1-2.5-1.2s-0.5-2.4,0.2-2.8
				C1710.1,264.7,1711.2,265.2,1711.8,266.3z"/>
		</g>
		<g>
			<path class="st5" d="M1720.9,282.2c0.1,2-2.1,4.2-4,4.1c-1.4-0.1-2.8-0.8-3.5-2c-1-1.8-0.2-3.9,0.1-5.8c0.2-1.3,0.3-2.5,0.3-3.8
				c0-0.6,0-1.3-0.1-1.9c0-0.5-0.4-1.3-0.3-1.8l0,0c0-0.5,0.4-0.9,0.9-1.1c0.4-0.2,0.9-0.2,1.4-0.2c0.5,0,1,0,1.5,0.2
				c0.5,0.2,0.9,0.6,1.3,1.1c1,1.3,1.6,3.1,1.5,4.8c0,0.6,0.1,1.4,0.2,2c0.1,0.7,0.2,1.5,0.3,2.2
				C1720.7,280.8,1720.9,281.5,1720.9,282.2z"/>
		</g>
		<path class="st11" d="M1720,276.1c0,0-2.9,0.6-4.2-1.3c0,0,2.7,4.8,4.6,5L1720,276.1z"/>
	</g>
	<g>
		<path class="st7" d="M1707.2,257.8c-2.8,0.6-4.5,3.5-5.2,6.3c-0.6,2.3-0.8,4.9,0.2,7.1c1.2,2.7,4.3,4.5,7.3,4.4
			c3-0.1,5.9-2,7.3-4.6s1.6-5.9,0.5-8.7l0.5,0.1c0.9,1.3,2.6,2.1,4.2,2.1c1.6,0,3.2-0.8,4.4-1.9c1.3-1.1,2.2-2.7,2.4-4.4
			c0.2-1.7-0.4-3.5-1.7-4.6l-0.4,0.1c0.1-1.9-0.7-3.8-2.1-5.1c-1.3-1.3-3.1-2.1-5-2.5c-3.2-0.6-6.6,0.2-9.1,2.4
			c-2.4,2.1-3.7,5.6-3,8.7L1707.2,257.8z"/>
	</g>
</g>
<g>
	<path class="st12" d="M1742.6,433.2h-58c-6,0-10.9,4.9-10.9,10.9v145h79.7V444C1753.4,438,1748.5,433.2,1742.6,433.2z"/>
	<path class="st13" d="M1655.6,484.9h-58c-6,0-10.9,4.9-10.9,10.9V589h79.7v-93.3C1666.5,489.7,1661.6,484.9,1655.6,484.9z"/>
</g>
<g>
	<g>
		<path class="st5" d="M211,321.3c3.9-3.7,6.8-7.8,8.6-12.9c5.3-14.8,4.4-31.7-1.5-46.2c-1-2.4-2-4.7-2.7-7.2
			c-0.1-0.2-0.1-0.4,0-0.5c0.1-0.1,0.2-0.2,0.3-0.2c2.7-0.5,5.9,5.8,6.9,7.6c8,14.6,7.4,33.4,2.5,49c-1,3.2-2.3,6.3-3.7,9.4
			c-0.8,1.5-1.6,3.1-2.5,4.5c-0.2,0.4-2.8,4-2.7,4.1C214.4,326.4,212.7,323.9,211,321.3z"/>
	</g>
	<g>
		<g>
			<g>
				<path class="st14" d="M184.7,370.1c-0.9,6.3-1.1,14.3,0.5,20.5c1.4,5.4,3.2,10.7,5.1,15.8c1,2.6,2,5.2,3,7.7
					c0.5,1.2,1.2,2.6,1.1,3.9c-0.1,1.5-1.2,2.5-1.9,3.7c-1.1,1.9-2.2,3.8-3.3,5.7c-2.1,3.7-4,7.4-5.9,11.2
					c-3.8,7.8-7.7,17.2-10.4,25.6l6.3,0.9c8-11.2,15.5-22.2,23-34.1c2.4-3.7,5.4-8.9,5.6-13.7c0.1-1.5-0.3-18.4-0.8-30.9
					c-0.3-7.7-0.8-13.7-1.3-13.7L184.7,370.1z"/>
			</g>
			<g>
				<path class="st15" d="M171.9,467c-0.1,0.7,0.1,1.5,0.6,1.9c0.4,0.2,0.8,0.3,1.2,0.3c4.9,0.1,9.8-0.1,14.7-0.4
					c0.5,0,1-0.1,1.4-0.3c0.4-0.3,0.8-0.8,0.7-1.3c-0.1-0.7-0.8-1-1.4-1.2c-2.5-0.6-12.9-3-15.7-3.1
					C173.4,462.8,172,466.3,171.9,467z"/>
			</g>
		</g>
		<g>
			<g>
				<path class="st14" d="M195.2,371.1c0.2,6.4,1.3,14.3,4,20.1c2.3,5,5,9.8,7.7,14.4c1.4,2.3,2.8,4.6,4.2,7
					c0.7,1.1,1.6,2.3,1.7,3.6c0.2,1.5-0.7,2.7-1.2,4.1c-0.8,2.1-1.5,4.2-2.2,6.3c-1.4,4-2.7,8.1-3.9,12.2
					c-2.4,8.5-4.4,16.7-5.6,25.5l6.4,0.4c6-12.8,11-24.3,16.4-37.6c1.7-4.2,3.8-9.9,3.1-14.7c-0.3-2.4-8.4-43.7-9.7-43.4
					L195.2,371.1z"/>
			</g>
			<g>
				<path class="st15" d="M198.9,467c-0.1,0.7,0.1,1.5,0.7,1.9c0.4,0.2,0.8,0.3,1.2,0.3c4.9,0,9.8-0.1,14.7-0.5c0.5,0,1-0.1,1.4-0.3
					c0.4-0.3,0.8-0.8,0.7-1.3c-0.1-0.7-0.8-1-1.4-1.2c-2.5-0.6-13-3.5-15.9-3.6C200.2,462.2,199,466.3,198.9,467z"/>
			</g>
		</g>
		<g>
			<path class="st5" d="M187,322.8c-4.4-3-7.9-6.6-10.5-11.4c-7.6-13.8-9.4-30.6-5.9-45.9c0.6-2.5,1.2-5,1.6-7.5
				c0-0.2,0-0.4-0.1-0.5c-0.1-0.1-0.2-0.1-0.3-0.1c-2.7-0.1-4.9,6.7-5.6,8.6c-5.6,15.7-2,34.2,5.3,48.7c1.5,3,3.2,5.9,5.2,8.6
				c1,1.4,2,2.8,3.1,4.1c0.3,0.4,3.4,3.5,3.3,3.7C184.4,328.3,185.7,325.5,187,322.8z"/>
		</g>
		<g>
			<linearGradient id="SVGID_5_" gradientUnits="userSpaceOnUse" x1="223.9389" y1="347.8918" x2="185.0696" y2="347.2385">
				<stop  offset="0" style="stop-color:#00C8CC"/>
				<stop  offset="1" style="stop-color:#009AA5"/>
			</linearGradient>
			<path class="st16" d="M204.6,326.5c2.3-2.5,8.1-10,8.1-10c2.2,1.9,8.1,7.2,8.3,7.1c-2.7,5.5-5.9,10.7-7.4,16.6l4.9,34.1
				c-6.3,2.3-17.1,7.7-35.7,1.1c0,0,5.7-24.6,6.3-35.9c0,0-7.1-6.7-11.1-11.3l8.7-9.1c3.1,2.9,5.6,5.4,9.9,7.1L204.6,326.5z"/>
		</g>
		<g>
			<g>
				<path class="st11" d="M187.4,377c1-4.2,4.6-26.8,5.3-38.6c0,0-7.4-7.2-12.2-12.5l-2.4,2.5c4.1,4.6,11.1,11.3,11.1,11.3
					c-0.6,11.3-6.3,35.9-6.3,35.9C184.5,376.1,186,376.6,187.4,377z"/>
			</g>
		</g>
		<g>
			<g>
				<path class="st5" d="M204.6,315.8l4.7-1.6c0.3-1.5,0.3-3.2,0-5c-1-5.3-4.9-9-8.7-8.2c-3.8,0.7-6.1,5.6-5,10.9
					c1,5.3,4.9,9,8.7,8.2c1.5-0.3,2.8-1.3,3.7-2.7C206,317.6,204.6,315.8,204.6,315.8z"/>
			</g>
			<g>
				<path class="st5" d="M195.5,310.4c0.6,1.1,0.5,2.4-0.2,2.8c-0.8,0.4-1.9-0.1-2.5-1.2c-0.6-1.1-0.5-2.4,0.2-2.8
					C193.7,308.8,194.8,309.3,195.5,310.4z"/>
			</g>
			<g>
				<path class="st5" d="M204.6,326.3c0.1,2-2.1,4.2-4,4.1c-1.4-0.1-2.8-0.8-3.5-2.1c-1-1.8-0.2-3.9,0.1-5.8
					c0.2-1.3,0.3-2.5,0.3-3.8c0-0.6,0-1.3-0.1-1.9c0-0.5-0.4-1.3-0.3-1.8l0,0c0-0.5,0.4-0.9,0.9-1.1c0.4-0.2,0.9-0.2,1.4-0.2
					c0.5,0,1,0,1.5,0.2c0.5,0.2,0.9,0.6,1.3,1.1c1.1,1.3,1.6,3.1,1.5,4.8c0,0.6,0.1,1.4,0.2,2c0.1,0.7,0.2,1.5,0.3,2.2
					C204.3,324.9,204.6,325.6,204.6,326.3z"/>
			</g>
			<g>
				<path class="st14" d="M193.5,304.3c0-0.1,0-0.3,0-0.4c0.4-2.9,3.2-4.2,5.8-4.9c1.4-0.4,2.8-0.6,4.1-1.3c1.2-0.6,2.2-1.4,3.2-2.2
					c0.7-0.6,1.4-1.2,2.2-1.5c0.8-0.4,1.8-0.4,2.6,0.1c0.8,0.5,1.2,1.5,1.1,2.5c-0.1,0.9-0.7,1.8-1.4,2.4c0.5,0,1,0.1,1.4,0.3
					c0.8,0.4,1.4,1.3,1.4,2.2c0,0.9-0.7,1.8-1.6,1.9c0.3,0.7,0.7,1.4,0.6,2.2c-0.2,1-1.1,1.6-2,2c-4.4,2.2-11,3.1-15.3,0.3
					C194.4,307,193.4,305.7,193.5,304.3z"/>
			</g>
			<g>
				<path class="st14" d="M193.8,304.6c-0.3,1.5-0.3,3.1,0.1,4.6c0.4,1.4,1.1,3,2.2,4c0.4-2.6,0.8-7.2,0-9c-0.2-0.4-0.5-0.9-1-1
					C194.3,303,194,303.7,193.8,304.6z"/>
			</g>
			<path class="st14" d="M195.1,305.1c-0.4,0.5-1.4,0.4-2.3-0.3c-0.9-0.6-1.4-1.6-1-2.1c0.4-0.5,1.4-0.4,2.3,0.3
				C195,303.7,195.5,304.6,195.1,305.1z"/>
			<path class="st14" d="M195.3,305.4c0,0.6-0.9,1.1-2,1.1c-1.1,0-2-0.5-2-1.1c0-0.6,0.9-1.1,2-1.1
				C194.4,304.3,195.3,304.8,195.3,305.4z"/>
		</g>
		<path class="st11" d="M203.7,320.3c0,0-2.9,0.6-4.2-1.3c0,0,2.7,4.9,4.7,5.1L203.7,320.3z"/>
		<polygon class="st9" points="212.3,413.5 207.1,390 207.5,406.8 		"/>
	</g>
</g>
<g>
	<path class="st12" d="M314.1,433.2h-58c-6,0-10.9,4.9-10.9,10.9v145H325V444C325,438,320.1,433.2,314.1,433.2z"/>
	<path class="st13" d="M227.2,469.4h-58c-6,0-10.9,4.9-10.9,10.9V589H238V480.2C238,474.2,233.2,469.4,227.2,469.4z"/>
</g>
<g class="st17">
	<g>
		<g>
			<path class="st2" d="M1758.8,148.1c0.2-0.1,0.5-0.3,0.6-0.5c0.6-1.2,1.4-2.3,2.4-3.2c0.5-0.4,0.5-1.1,0.1-1.6
				c-0.4-0.5-1.1-0.5-1.6-0.1c-1.2,1.1-2.2,2.4-2.9,3.9c-0.3,0.6,0,1.2,0.5,1.5C1758.2,148.2,1758.5,148.2,1758.8,148.1z"/>
			<path class="st2" d="M1827.2,127.3c-0.9-1-2.2-1.2-3.4-0.7l0,0l-40.3,19.1c-0.9,0.4-1.5,1.4-1.4,2.4c0.1,1,0.7,1.9,1.7,2.3
				l12.5,4.3c0.2,0.1,0.3,0.1,0.4,0.3c0,0,0,0,0,0c0,0,0,0,0,0c0.1,0.1,0.2,0.3,0.2,0.4l3.1,12.9c0.2,1,1.1,1.8,2.1,1.9
				c0.5,0.1,0.9,0,1.3-0.2c0.5-0.2,0.9-0.6,1.2-1l2-3.3l1.7,1.9c0.9,1,2.1,1.4,3.4,1.1c0.2,0,0.5-0.1,0.7-0.2c0.9-0.4,1.7-1.1,2-2.1
				l12.2-34.3l0.8-1.4C1828.2,129.6,1828.1,128.2,1827.2,127.3z M1812.4,165.6c-0.2,0.5-0.5,0.8-1,0.9c-0.5,0.1-1-0.1-1.3-0.4
				l-2.2-2.4l12.9-21.6L1812.4,165.6z M1805.6,163.3C1805.6,163.3,1805.6,163.3,1805.6,163.3l-2.7,4.6c-0.1,0.1-0.2,0.2-0.3,0.1
				c-0.1,0-0.2-0.1-0.2-0.2l-3.1-12.9c0-0.2-0.1-0.3-0.1-0.4l5.8-5.3c0.5-0.4,0.5-1.1,0.1-1.6c-0.4-0.5-1.1-0.5-1.6-0.1l-5.8,5.3
				c-0.1-0.1-0.3-0.1-0.4-0.2l-12.5-4.3c-0.1,0-0.2-0.1-0.2-0.3c0-0.1,0-0.2,0.2-0.3l38.7-18.3l-15.8,14.4c-0.5,0.4-0.5,1.1-0.1,1.6
				c0.3,0.4,0.8,0.5,1.3,0.3c0.1,0,0.2-0.1,0.3-0.2l15.8-14.4L1805.6,163.3z"/>
			<path class="st2" d="M1790.9,158.7l-5.2,4.7c-2.7,2.4-6.1,3.7-9.8,3.5c-1.5-0.1-2.9-0.5-4.2-1.2l1.1,0c2.4,0.1,4.7-0.7,6.4-2.3
				c1.8-1.7,2.9-3.9,2.9-6.4c0.1-2.5-0.9-4.8-2.6-6.5c-1.6-1.6-3.6-2.5-5.8-2.6c-2.2-0.1-4.4,0.6-6.1,1.9c-2,1.6-3.2,4-3.4,6.6
				c-0.1,2.3,0.4,4.4,1.5,6.4c-1.8-0.6-3.3-1.6-4.6-3c-2-2.2-3-5-2.9-7.9c0-0.6-0.5-1.1-1.1-1.2c-0.6,0-1.1,0.5-1.2,1.1
				c-0.2,3.5,1.1,6.9,3.4,9.5c2.2,2.4,5.1,3.9,8.3,4.2c2.2,2.2,5,3.5,8.1,3.6c2.3,0.1,4.6-0.3,6.7-1.2c1.7-0.7,3.3-1.7,4.7-3
				l5.2-4.7c0.5-0.4,0.5-1.1,0.1-1.6C1792,158.3,1791.3,158.3,1790.9,158.7z M1768.8,163.4c-1.6-1.9-2.4-4.3-2.3-6.8
				c0.1-1.9,1-3.7,2.5-4.9c2.6-2.1,6.6-1.9,9,0.5c1.3,1.3,2,3.1,2,4.9c0,1.8-0.8,3.5-2.2,4.8c-1.3,1.2-3,1.8-4.8,1.7L1768.8,163.4z"
				/>
		</g>
	</g>
</g>
<polygon class="st18" points="356.4,412.5 364.6,408.3 363,417.3 369.6,423.7 360.5,425 356.4,433.3 352.4,425 343.3,423.7 
	349.9,417.3 348.3,408.3 "/>
<polygon class="st12" points="1586.8,335.5 1594.9,331.2 1593.4,340.3 1600,346.7 1590.9,348 1586.8,356.2 1582.7,348 1573.7,346.7 
	1580.2,340.3 1578.7,331.2 "/>
<g class="st19">
	<g>
		<path class="st2" d="M1059.7,111.5c2.6-3.5,5.3-7.6,9.5-9.3c4.9-1.9,9.1-0.4,13.8,0.9c9.2,2.4,15.9-5,23.4-8.8
			c2.9-1.5,0.3-5.8-2.5-4.3c-4.9,2.5-9.2,6.9-14.6,8.4c-5.1,1.4-10.2-2.3-15.5-2c-8.8,0.5-13.7,5.9-18.6,12.7
			C1053.4,111.6,1057.8,114.1,1059.7,111.5L1059.7,111.5z"/>
	</g>
</g>
</svg>
