<svg width="268" height="61" viewBox="0 0 268 61" fill="none" xmlns="http://www.w3.org/2000/svg">
    <path
        d="M0 18.9789C0 8.51432 8.51432 0 18.9789 0H29.8595L50.2539 0.0648298C51.302 0.0648298 52.1502 0.923825 52.1448 1.97191L52.1124 12.1988C52.1124 13.2415 51.2588 14.0897 50.2161 14.0897H14.0249V45.1972C14.0249 53.101 7.80119 59.584 0 60V18.9789Z"
        fill="#FF045D" />
    <path d="M24.6621 24.6029H43.2953C42.231 34.3652 34.4244 42.1718 24.6621 43.2361V24.6029Z"
        fill="#FF045D" />
    <path
        d="M84.122 12.7229C84.4353 12.0097 84.9702 11.4911 85.7319 11.1669C86.4937 10.8428 87.7308 10.5295 89.0761 10.5295C91.0804 10.5295 93.1711 10.7131 95.7211 11.5721C95.9966 11.664 96.283 11.4749 96.2992 11.1832L96.7206 3.11724C96.7314 2.90654 96.5909 2.71746 96.3856 2.66884C93.0523 1.85846 90.1728 1.65317 87.3527 1.65317C84.2408 1.65317 81.4964 2.33388 79.5083 3.29552C77.5201 4.25717 76.0237 5.81308 75.0242 7.95787C74.0247 10.1027 73.5223 12.9228 73.5223 16.4182V19.5678H67.7795C67.5309 19.5678 67.3311 19.7677 67.3311 20.0162V27.3582C67.3311 27.6067 67.5309 27.8066 67.7795 27.8066H73.5223L73.4845 57.1637C73.4845 57.5419 73.7924 57.8552 74.1706 57.8552H82.9172C83.2954 57.8552 83.6033 57.5473 83.6033 57.1691L83.6412 27.812H95.7859C96.1047 27.812 96.364 27.5527 96.364 27.2339V20.1513C96.364 19.8325 96.1101 19.5732 95.7859 19.5732H83.6358V15.705C83.6358 14.43 83.7924 13.436 84.1058 12.7229H84.122Z"
        fill="#16161E" />
    <path
        d="M112.42 2.74446H103.29C103.066 2.74446 102.885 2.92587 102.885 3.14965V57.4608C102.885 57.6846 103.066 57.866 103.29 57.866H112.42C112.644 57.866 112.825 57.6846 112.825 57.4608V3.14965C112.825 2.92587 112.644 2.74446 112.42 2.74446Z"
        fill="#16161E" />
    <path
        d="M190.945 36.067L204.349 14.9055C204.527 14.6245 204.327 14.2626 203.992 14.2626H194.003C193.852 14.2626 193.717 14.3436 193.641 14.4733L184.257 30.7942L174.905 14.4733C174.83 14.3436 174.689 14.2626 174.543 14.2626H164.484C164.154 14.2626 163.954 14.6299 164.133 14.9055L177.606 36.0616L164.116 57.2447C163.944 57.5149 164.138 57.8606 164.457 57.8606H174.554C174.7 57.8606 174.83 57.785 174.905 57.6607L184.278 41.3344L193.652 57.6607C193.722 57.785 193.857 57.8606 194.003 57.8606H204.03C204.349 57.8606 204.538 57.5095 204.37 57.2447L190.951 36.0616L190.945 36.067Z"
        fill="#16161E" />
    <path
        d="M218.947 0.491626C218.088 0.162075 216.921 0 215.451 0C213.982 0 212.777 0.162075 211.907 0.491626C211.038 0.821178 210.411 1.34522 210.027 2.06915C209.644 2.79308 209.449 3.96002 209.449 5.20259C209.449 6.44516 209.638 7.57428 210.027 8.28741C210.411 9.00054 211.038 9.51378 211.907 9.83252C212.777 10.1513 213.96 10.3079 215.451 10.3079C216.942 10.3079 218.082 10.1513 218.941 9.83252C219.8 9.51378 220.422 9.00054 220.805 8.28741C221.189 7.57428 221.383 6.42355 221.383 5.20259C221.383 3.98163 221.189 2.79308 220.805 2.06915C220.422 1.34522 219.8 0.821178 218.941 0.491626H218.947Z"
        fill="#16161E" />
    <path
        d="M220.021 14.4517H210.74C210.507 14.4517 210.318 14.6403 210.318 14.8731V57.45C210.318 57.6828 210.507 57.8714 210.74 57.8714H220.021C220.254 57.8714 220.443 57.6828 220.443 57.45V14.8731C220.443 14.6403 220.254 14.4517 220.021 14.4517Z"
        fill="#16161E" />
    <path
        d="M155.154 17.8606C151.453 14.738 146.564 13.1767 140.492 13.1767C136.829 13.1767 133.376 14.0681 130.135 15.8509C126.894 17.6337 124.284 20.2377 122.307 23.6629C120.329 27.0881 119.341 31.1129 119.341 35.7374C119.341 43.5981 121.27 49.4273 125.127 53.2361C128.984 57.0448 134.214 58.9465 141.615 58.9465C151.729 58.9465 156.964 53.5116 158.568 51.1021C159.908 49.087 160.686 46.845 160.908 44.3922C160.929 44.1653 160.745 43.9762 160.519 43.9762H151.324C151.156 43.9762 151.01 44.0843 150.956 44.241C150.346 46.1534 147.882 50.6375 141.648 50.6375C138.417 50.6375 136.175 49.9676 134.127 48.6332C132.08 47.2934 130.681 45.0459 129.935 41.8909L161.048 32.3663C161.226 32.3123 161.345 32.1394 161.329 31.9503C160.848 25.6294 158.79 20.9346 155.148 17.8606H155.154ZM132.431 24.4949C134.527 22.2799 137.299 21.1669 140.745 21.1669C143.663 21.1669 146.083 21.9881 148.012 23.6251C149.033 24.4895 149.816 25.6186 150.383 26.9962L129.379 33.1388C129.681 29.2112 130.691 26.3263 132.426 24.4949H132.431Z"
        fill="#16161E" />
    <path
        d="M265.769 20.7509C264.478 18.2334 262.398 16.3371 259.535 15.0729C256.666 13.8087 253.241 13.1766 248.471 13.1766C243.7 13.1766 240.41 13.879 237.206 15.2944C234.003 16.7045 231.626 18.5629 230.086 20.8644C228.541 23.1658 227.774 25.6672 227.774 28.3684C227.774 29.3409 227.92 30.3836 228.201 31.4965C228.276 31.7936 228.552 31.9989 228.86 31.9989H237.001C237.379 31.9989 237.682 31.6964 237.682 31.3182V30.1026C237.682 28.39 238.152 26.9098 239.092 25.6564C240.032 24.403 241.339 23.4468 243.014 22.7823C244.689 22.1177 246.029 21.7882 248.222 21.7882C251.404 21.7882 253.441 22.3555 255.132 23.49C256.818 24.6245 257.66 26.4884 257.66 29.0924C257.66 30.3241 257.196 31.329 256.266 32.1123C255.337 32.8957 254.062 33.5548 252.436 34.0843C250.81 34.6137 248.309 35.316 244.932 36.1804C243.965 36.3965 242.328 36.8179 240.016 37.4446C236.98 38.2172 234.57 39.114 232.782 40.1404C230.999 41.1669 229.708 42.3609 228.914 43.7223C228.12 45.0837 227.72 46.7045 227.72 48.5845C227.72 51.8854 228.762 54.4462 230.848 56.2669C232.933 58.0875 235.807 58.9951 239.47 58.9951C239.729 58.9951 239.978 58.9789 240.232 58.9681L240.21 58.9843C250.718 59.3139 256.099 52.5662 258.184 49.0437L258.336 57.4878C258.336 57.7255 258.536 57.9146 258.768 57.9146H267.271C267.509 57.9146 267.709 57.7201 267.709 57.477V30.47C267.709 26.5154 267.066 23.2793 265.775 20.7617L265.769 20.7509ZM238.654 50.1999C237.606 49.2598 237.082 47.9848 237.082 46.3695C237.082 45.1648 237.347 44.1437 237.876 43.3117C238.406 42.4797 239.373 41.7018 240.767 40.9778C242.166 40.2539 244.176 39.5192 246.807 38.7736C249.821 37.9308 252.101 37.2069 253.657 36.6018C255.213 36.0021 256.445 35.3592 257.363 34.6839L257.39 34.6947C257.201 38.4819 255.823 48.7898 246.542 51.2317C245.456 51.4749 244.332 51.6045 243.149 51.6045C241.199 51.6045 239.697 51.1345 238.649 50.1945L238.654 50.1999Z"
        fill="#16161E" />
</svg>
    