<svg width="238" height="35" viewBox="0 0 238 35" fill="none" xmlns="http://www.w3.org/2000/svg">
<g clip-path="url(#clip0_246_1696)">
<path fill-rule="evenodd" clip-rule="evenodd" d="M15.6285 2.13935V0H8.44171V2.13935C8.44171 5.20785 5.6956 7.718 2.33996 7.718H0V14.2887H2.33996C9.64901 14.2887 15.6285 8.82126 15.6285 2.13935Z" fill="#C0D6FF"/>
<path fill-rule="evenodd" clip-rule="evenodd" d="M8.44171 32.0002H15.6285V29.8608C15.6285 23.1778 9.64901 17.7109 2.33996 17.7109H0V24.2816H2.33996C5.69619 24.2816 8.44171 26.7923 8.44171 29.8603V31.9996V32.0002Z" fill="#86AFFF"/>
<path fill-rule="evenodd" clip-rule="evenodd" d="M26.5534 29.8603C26.5534 26.7918 29.2995 24.2816 32.6557 24.2816H34.9957V17.7109H32.6557C25.3467 17.7109 19.3672 23.1778 19.3672 29.8608V32.0002H26.554V29.8608L26.5534 29.8603Z" fill="#4A88FF"/>
<path fill-rule="evenodd" clip-rule="evenodd" d="M32.6563 7.71854C29.3001 7.71854 26.554 5.20785 26.554 2.13989V0H19.3672V2.13935C19.3672 8.8218 25.3467 14.2887 32.6557 14.2887H34.9957V7.718H32.6557L32.6563 7.71854Z" fill="#0057FF"/>
</g>
<path d="M49.81 27V8.79H54.73V27H49.81ZM43.66 9.39V5.1H60.91V9.39H43.66ZM63.7349 27V5.1H68.5349V17.73H67.8149C67.8149 16.07 68.0249 14.67 68.4449 13.53C68.8649 12.39 69.4849 11.53 70.3049 10.95C71.1249 10.35 72.1549 10.05 73.3949 10.05H73.6049C75.4249 10.05 76.8149 10.7 77.7749 12C78.7349 13.28 79.2149 15.16 79.2149 17.64V27H74.4149V17.34C74.4149 16.44 74.1449 15.72 73.6049 15.18C73.0849 14.62 72.3949 14.34 71.5349 14.34C70.6349 14.34 69.9049 14.63 69.3449 15.21C68.8049 15.79 68.5349 16.56 68.5349 17.52V27H63.7349ZM90.8352 27.57C89.4352 27.57 88.1952 27.33 87.1152 26.85C86.0552 26.37 85.1652 25.73 84.4452 24.93C83.7452 24.11 83.2052 23.2 82.8252 22.2C82.4652 21.18 82.2852 20.14 82.2852 19.08V18.48C82.2852 17.38 82.4652 16.33 82.8252 15.33C83.2052 14.31 83.7452 13.4 84.4452 12.6C85.1452 11.8 86.0152 11.17 87.0552 10.71C88.1152 10.23 89.3152 9.99 90.6552 9.99C92.4152 9.99 93.8952 10.39 95.0952 11.19C96.3152 11.97 97.2452 13 97.8852 14.28C98.5252 15.54 98.8452 16.92 98.8452 18.42V20.04H84.2952V17.31H95.9352L94.3752 18.57C94.3752 17.59 94.2352 16.75 93.9552 16.05C93.6752 15.35 93.2552 14.82 92.6952 14.46C92.1552 14.08 91.4752 13.89 90.6552 13.89C89.8152 13.89 89.1052 14.08 88.5252 14.46C87.9452 14.84 87.5052 15.4 87.2052 16.14C86.9052 16.86 86.7552 17.75 86.7552 18.81C86.7552 19.79 86.8952 20.65 87.1752 21.39C87.4552 22.11 87.8952 22.67 88.4952 23.07C89.0952 23.47 89.8752 23.67 90.8352 23.67C91.7152 23.67 92.4352 23.5 92.9952 23.16C93.5552 22.82 93.9352 22.4 94.1352 21.9H98.5452C98.3052 23 97.8352 23.98 97.1352 24.84C96.4352 25.7 95.5552 26.37 94.4952 26.85C93.4352 27.33 92.2152 27.57 90.8352 27.57ZM102.026 27V10.56H105.836V17.64H105.566C105.566 15.96 105.776 14.56 106.196 13.44C106.616 12.32 107.246 11.48 108.086 10.92C108.926 10.34 109.956 10.05 111.176 10.05H111.386C112.626 10.05 113.656 10.34 114.476 10.92C115.316 11.48 115.946 12.32 116.366 13.44C116.806 14.56 117.026 15.96 117.026 17.64H115.856C115.856 15.96 116.066 14.56 116.486 13.44C116.926 12.32 117.566 11.48 118.406 10.92C119.246 10.34 120.276 10.05 121.496 10.05H121.706C122.946 10.05 123.986 10.34 124.826 10.92C125.686 11.48 126.336 12.32 126.776 13.44C127.216 14.56 127.436 15.96 127.436 17.64V27H122.636V17.37C122.636 16.47 122.396 15.74 121.916 15.18C121.456 14.62 120.796 14.34 119.936 14.34C119.076 14.34 118.396 14.63 117.896 15.21C117.396 15.77 117.146 16.52 117.146 17.46V27H112.316V17.37C112.316 16.47 112.076 15.74 111.596 15.18C111.136 14.62 110.486 14.34 109.646 14.34C108.766 14.34 108.076 14.63 107.576 15.21C107.076 15.77 106.826 16.52 106.826 17.46V27H102.026ZM139.058 27.57C137.658 27.57 136.418 27.33 135.338 26.85C134.278 26.37 133.388 25.73 132.668 24.93C131.968 24.11 131.428 23.2 131.048 22.2C130.688 21.18 130.508 20.14 130.508 19.08V18.48C130.508 17.38 130.688 16.33 131.048 15.33C131.428 14.31 131.968 13.4 132.668 12.6C133.368 11.8 134.238 11.17 135.278 10.71C136.338 10.23 137.538 9.99 138.878 9.99C140.638 9.99 142.118 10.39 143.318 11.19C144.538 11.97 145.468 13 146.108 14.28C146.748 15.54 147.068 16.92 147.068 18.42V20.04H132.518V17.31H144.158L142.598 18.57C142.598 17.59 142.458 16.75 142.178 16.05C141.898 15.35 141.478 14.82 140.918 14.46C140.378 14.08 139.698 13.89 138.878 13.89C138.038 13.89 137.328 14.08 136.748 14.46C136.168 14.84 135.728 15.4 135.428 16.14C135.128 16.86 134.978 17.75 134.978 18.81C134.978 19.79 135.118 20.65 135.398 21.39C135.678 22.11 136.118 22.67 136.718 23.07C137.318 23.47 138.098 23.67 139.058 23.67C139.938 23.67 140.658 23.5 141.218 23.16C141.778 22.82 142.158 22.4 142.358 21.9H146.768C146.528 23 146.058 23.98 145.358 24.84C144.658 25.7 143.778 26.37 142.718 26.85C141.658 27.33 140.438 27.57 139.058 27.57ZM151.479 27V5.1H155.289L167.289 24.93H168.249L167.649 25.41V5.1H169.839V27H165.999L153.999 7.17H153.039L153.639 6.69V27H151.479ZM185.824 27V22.23H185.464V16.59C185.464 15.41 185.154 14.51 184.534 13.89C183.914 13.25 182.954 12.93 181.654 12.93C181.054 12.93 180.444 12.94 179.824 12.96C179.224 12.98 178.644 13.01 178.084 13.05C177.544 13.07 177.064 13.1 176.644 13.14V11.16C177.084 11.12 177.534 11.08 177.994 11.04C178.454 11 178.924 10.98 179.404 10.98C179.904 10.96 180.384 10.95 180.844 10.95C182.464 10.95 183.764 11.15 184.744 11.55C185.744 11.95 186.474 12.58 186.934 13.44C187.394 14.28 187.624 15.4 187.624 16.8V27H185.824ZM180.454 27.42C179.334 27.42 178.344 27.22 177.484 26.82C176.624 26.42 175.954 25.84 175.474 25.08C175.014 24.32 174.784 23.4 174.784 22.32C174.784 21.26 175.024 20.36 175.504 19.62C176.004 18.88 176.714 18.32 177.634 17.94C178.574 17.54 179.704 17.34 181.024 17.34H185.674V19.05H180.874C179.614 19.05 178.644 19.36 177.964 19.98C177.304 20.58 176.974 21.37 176.974 22.35C176.974 23.35 177.324 24.15 178.024 24.75C178.724 25.33 179.674 25.62 180.874 25.62C181.614 25.62 182.324 25.49 183.004 25.23C183.684 24.95 184.254 24.49 184.714 23.85C185.174 23.19 185.424 22.29 185.464 21.15L186.124 22.08C186.044 23.26 185.764 24.25 185.284 25.05C184.804 25.83 184.154 26.42 183.334 26.82C182.514 27.22 181.554 27.42 180.454 27.42ZM193.244 27V11.1H195.044V17.79H194.684C194.684 16.33 194.884 15.07 195.284 14.01C195.704 12.95 196.324 12.13 197.144 11.55C197.964 10.95 199.004 10.65 200.264 10.65H200.354C201.614 10.65 202.654 10.94 203.474 11.52C204.294 12.1 204.904 12.92 205.304 13.98C205.704 15.04 205.904 16.31 205.904 17.79H205.184C205.184 16.33 205.384 15.07 205.784 14.01C206.204 12.95 206.824 12.13 207.644 11.55C208.484 10.95 209.534 10.65 210.794 10.65H210.884C212.144 10.65 213.184 10.94 214.004 11.52C214.844 12.1 215.464 12.92 215.864 13.98C216.284 15.04 216.494 16.31 216.494 17.79V27H214.244V17.28C214.244 15.88 213.904 14.77 213.224 13.95C212.544 13.13 211.564 12.72 210.284 12.72C208.964 12.72 207.914 13.15 207.134 14.01C206.374 14.85 205.994 15.99 205.994 17.43V27H203.744V17.28C203.744 15.88 203.404 14.77 202.724 13.95C202.044 13.13 201.064 12.72 199.784 12.72C198.464 12.72 197.414 13.15 196.634 14.01C195.874 14.85 195.494 15.99 195.494 17.43V27H193.244ZM228.731 27.51C227.371 27.51 226.191 27.28 225.191 26.82C224.191 26.34 223.371 25.71 222.731 24.93C222.091 24.13 221.611 23.24 221.291 22.26C220.991 21.28 220.841 20.27 220.841 19.23V18.81C220.841 17.79 220.991 16.79 221.291 15.81C221.611 14.83 222.091 13.95 222.731 13.17C223.371 12.39 224.171 11.77 225.131 11.31C226.111 10.83 227.251 10.59 228.551 10.59C230.211 10.59 231.591 10.96 232.691 11.7C233.811 12.44 234.651 13.39 235.211 14.55C235.771 15.69 236.051 16.92 236.051 18.24V19.41H221.861V17.67H234.491L233.921 18.54C233.921 17.36 233.711 16.33 233.291 15.45C232.891 14.55 232.291 13.85 231.491 13.35C230.711 12.83 229.731 12.57 228.551 12.57C227.311 12.57 226.281 12.86 225.461 13.44C224.641 14.02 224.021 14.79 223.601 15.75C223.201 16.71 223.001 17.8 223.001 19.02C223.001 20.22 223.201 21.32 223.601 22.32C224.021 23.3 224.651 24.08 225.491 24.66C226.351 25.24 227.431 25.53 228.731 25.53C230.111 25.53 231.231 25.22 232.091 24.6C232.951 23.96 233.481 23.21 233.681 22.35H235.781C235.581 23.41 235.161 24.33 234.521 25.11C233.881 25.87 233.071 26.46 232.091 26.88C231.111 27.3 229.991 27.51 228.731 27.51Z" fill="#202124"/>
<defs>
<clipPath id="clip0_246_1696">
<rect width="35" height="32" fill="white"/>
</clipPath>
</defs>
</svg>
